<?xml version="1.0" encoding="UTF-8"?><svg id="Capa_2" xmlns="http://www.w3.org/2000/svg" viewBox="0 0 615.97 150.23"><defs><style>.cls-1{fill:#fff;}</style></defs><g id="Capa_1-2"><path class="cls-1" d="m0,4.32h95.52v26.96h-34.47v114.77h-27.92V31.28H0V4.32Z"/><path class="cls-1" d="m101,75.38c0-9.75,1.86-19,5.58-27.73,3.72-8.73,8.89-16.46,15.5-23.21,6.61-6.74,14.28-12.04,23.01-15.89,8.73-3.85,18.1-5.78,28.12-5.78s19.19,1.93,27.92,5.78c8.73,3.85,16.46,9.15,23.2,15.89s12,14.48,15.79,23.21c3.79,8.73,5.68,17.98,5.68,27.73s-1.9,19.39-5.68,28.12c-3.79,8.73-9.05,16.4-15.79,23.01-6.74,6.61-14.48,11.78-23.2,15.5-8.73,3.72-18.04,5.58-27.92,5.58s-19.39-1.86-28.12-5.58c-8.73-3.72-16.4-8.89-23.01-15.5-6.61-6.61-11.78-14.28-15.5-23.01-3.72-8.73-5.58-18.1-5.58-28.12Zm28.89,0c0,6.29,1.12,12.17,3.37,17.62,2.25,5.46,5.39,10.27,9.44,14.44,4.04,4.17,8.73,7.41,14.06,9.72,5.33,2.31,11.14,3.47,17.43,3.47s11.65-1.16,16.85-3.47c5.2-2.31,9.72-5.55,13.58-9.72,3.85-4.17,6.87-8.98,9.05-14.44,2.18-5.46,3.27-11.33,3.27-17.62s-1.12-12.39-3.37-17.91c-2.25-5.52-5.33-10.37-9.24-14.54-3.92-4.17-8.51-7.41-13.77-9.72-5.27-2.31-10.98-3.47-17.14-3.47s-11.88,1.16-17.14,3.47c-5.27,2.31-9.89,5.55-13.87,9.72-3.98,4.17-7.06,9.02-9.24,14.54-2.18,5.52-3.27,11.49-3.27,17.91Z"/><path class="cls-1" d="m251.39,122.56h36.2v23.49h-36.2v-23.49Z"/><path class="cls-1" d="m316.57,145.96V4.23h42.37c14.25,0,26.38,2.12,36.4,6.35s18.07,9.89,24.17,16.95c6.1,7.06,10.56,14.96,13.38,23.69,2.82,8.73,4.24,17.52,4.24,26.38,0,10.53-1.9,20-5.68,28.4-3.79,8.41-8.95,15.6-15.5,21.57-6.55,5.97-14.12,10.53-22.72,13.67-8.6,3.15-17.72,4.72-27.35,4.72h-49.3Zm27.92-26.96h16.56c7.06,0,13.48-.93,19.26-2.79,5.78-1.86,10.75-4.59,14.92-8.18,4.17-3.59,7.38-8.12,9.63-13.58,2.24-5.46,3.37-11.71,3.37-18.78,0-9.24-1.51-16.78-4.53-22.63-3.02-5.84-6.74-10.37-11.17-13.58-4.43-3.21-8.95-5.42-13.58-6.64-4.62-1.22-8.54-1.83-11.75-1.83h-22.72v88Z"/><path class="cls-1" d="m539.36,147.53h0c-.02-1.51,1.19-2.75,2.7-2.77h0c6.56-.09,12.94-1.06,18.96-2.87l2.62-.79,1.58,5.24-2.62.79c-6.5,1.96-13.39,3.01-20.46,3.11h0c-1.51.02-2.75-1.19-2.77-2.7Zm-15.12.95l-2.64-.7c-3.33-.88-6.62-2.01-9.78-3.36-3.22-1.37-6.34-2.96-9.28-4.71h0c-1.3-.77-1.72-2.45-.95-3.75h0c.77-1.3,2.45-1.72,3.75-.95h0c2.73,1.63,5.63,3.1,8.62,4.38,2.92,1.25,5.96,2.29,9.03,3.1l2.64.7-1.39,5.29Zm53.35-10.87h0c-.81-1.27-.44-2.97.84-3.78h0c4.2-2.68,8.17-5.83,11.78-9.38,1-.98,1.97-1.99,2.9-3.01l1.84-2.03,4.05,3.67-1.84,2.03c-1,1.1-2.05,2.2-3.12,3.25-3.89,3.81-8.15,7.21-12.68,10.08h0c-1.27.81-2.96.44-3.77-.84Zm-89.31-8.86l-1.88-1.99c-4.75-5.03-8.78-10.7-11.98-16.86h0c-.7-1.34-.17-2.99,1.17-3.69h0c1.34-.7,2.99-.18,3.69,1.16h0c2.97,5.71,6.71,10.97,11.11,15.63l1.88,1.99-3.98,3.75Zm61.02-5.96l-1.19-5.34,2.67-.6c2.38-.53,4.71-1.3,6.93-2.29,3.5-1.55,6.71-3.59,9.55-6.04h0c1.14-.99,2.87-.86,3.86.28h0c.99,1.14.86,2.87-.28,3.86h0c-3.25,2.81-6.91,5.13-10.91,6.91-2.55,1.13-5.22,2.02-7.96,2.63l-2.67.6Zm-15.1-2.79c-.34,1.47-1.81,2.39-3.28,2.04h0c-2.57-.6-5.08-1.43-7.47-2.46-4.14-1.79-7.97-4.15-11.37-7.01l-2.09-1.76,3.52-4.19,2.09,1.76c3,2.52,6.38,4.6,10.04,6.19,2.09.91,4.28,1.63,6.53,2.15h0c1.47.34,2.39,1.81,2.04,3.28h0Zm70.93-10.75h0c-1.35-.67-1.91-2.31-1.24-3.66h0c.52-1.06,1.03-2.16,1.52-3.27,2.06-4.75,3.55-9.77,4.44-14.92l.46-2.69,5.39.93-.46,2.69c-.96,5.58-2.58,11.01-4.81,16.17-.52,1.2-1.07,2.38-1.63,3.52h0c-.67,1.35-2.31,1.91-3.66,1.24Zm-102.17-12.08c-1.37.63-3,.03-3.63-1.34h0c-.29-.62-.56-1.25-.82-1.88-2.37-5.76-3.58-12.04-3.58-18.66l.02-3.17,5.47.04-.02,3.13c0,5.9,1.06,11.48,3.16,16.58.23.57.48,1.13.73,1.68h0c.63,1.37.03,3-1.34,3.63h0Zm79.17,1.01l-5-2.22,1.11-2.5c.23-.52.45-1.04.66-1.57,2.04-5.11,3.08-10.69,3.08-16.61v-.16c0-1.51,1.22-2.73,2.73-2.73h0c1.51,0,2.73,1.22,2.73,2.73v.16c0,6.61-1.17,12.88-3.47,18.64-.24.59-.48,1.18-.74,1.76l-1.11,2.5Zm-114.09-5.11l-.53-2.68c-.96-4.85-1.45-9.93-1.45-15.1,0-7.06.96-13.96,2.84-20.5h0c.42-1.45,1.93-2.29,3.38-1.87h0c1.45.42,2.29,1.93,1.87,3.39h0c-1.75,6.05-2.63,12.44-2.63,18.99,0,4.81.45,9.54,1.35,14.03l.53,2.68-5.36,1.07Zm145.47-22.42c-1.5.15-2.84-.94-3-2.44h0c-.65-6.4-2.22-12.64-4.67-18.55l-1.05-2.53,5.05-2.09,1.05,2.53c2.65,6.41,4.36,13.17,5.06,20.09h0c.15,1.5-.94,2.84-2.44,3h0Zm-34.25-11.33l-1.12-2.49c-2.04-4.53-4.74-8.61-8.03-12.12-.97-1.03-1.99-2.01-3.03-2.91h0c-1.14-.99-1.27-2.71-.29-3.86h0c.99-1.14,2.71-1.27,3.86-.29h0c1.19,1.03,2.35,2.14,3.45,3.31,3.71,3.95,6.74,8.53,9.03,13.62l1.12,2.49-4.99,2.24Zm-78.61-1.38h0c-1.38-.62-2-2.23-1.38-3.61h0c2.23-4.99,5.24-9.49,8.95-13.38,1.17-1.22,2.4-2.39,3.68-3.46l2.09-1.76,3.53,4.18-2.09,1.76c-1.12.95-2.21,1.98-3.25,3.06-3.28,3.44-5.94,7.42-7.91,11.84h0c-.62,1.38-2.23,2-3.61,1.38Zm-20.09-16.83l-4.65-2.88,1.44-2.32c2.99-4.83,6.55-9.36,10.58-13.47.83-.84,1.69-1.68,2.55-2.49h0c1.11-1.03,2.84-.97,3.86.14h0c1.03,1.11.97,2.84-.14,3.87h0c-.81.75-1.61,1.53-2.38,2.32-3.75,3.82-7.06,8.03-9.84,12.52l-1.44,2.32Zm119.47-7.58c-1.19.93-2.91.71-3.84-.48h0c-1.83-2.35-3.84-4.63-5.99-6.77-2.42-2.42-5.02-4.69-7.71-6.72l-2.18-1.65,3.3-4.36,2.18,1.65c2.9,2.19,5.68,4.62,8.28,7.22,2.3,2.3,4.46,4.75,6.43,7.28h0c.93,1.19.71,2.91-.48,3.84h0Zm-46.76.5l-2.67-.62c-2.98-.69-6.14-1.04-9.4-1.04-3.19,0-6.3.34-9.22,1l-.5.11c-1.2.27-2.39-.48-2.66-1.68l-.22-.99c-.27-1.2.48-2.39,1.68-2.66h0c7.26-1.64,14.81-1.62,22.06.05l2.15.5-1.23,5.33Zm-45.78-19.86l-2.51-4.86,2.43-1.25c1.42-.73,2.9-1.44,4.38-2.1,4.85-2.14,9.95-3.72,15.18-4.72h0c1.48-.28,2.91.69,3.2,2.18h0c.28,1.48-.69,2.91-2.18,3.2h0c-4.82.92-9.52,2.38-13.99,4.35-1.38.61-2.76,1.27-4.08,1.95l-2.43,1.25Zm61.84-5.6c-.56,1.4-2.15,2.08-3.56,1.52h0c-5.9-2.37-12.16-3.85-18.61-4.41l-2.72-.24.48-5.45,2.72.24c6.98.61,13.77,2.22,20.17,4.78h0c1.4.56,2.08,2.15,1.52,3.56h0Z"/></g></svg>