<?xml version="1.0" encoding="UTF-8"?><svg id="Capa_2" xmlns="http://www.w3.org/2000/svg" viewBox="0 0 239.78 141.83"><g id="Capa_1-2"><path d="m0,.05h95.52v26.96h-34.47v114.77h-27.92V27.01H0V.05Z"/><path d="m72.06,118.33h36.2v23.49h-36.2v-23.49Z"/><path d="m119.23,141.73V0h42.37c14.25,0,26.38,2.12,36.4,6.35s18.07,9.89,24.17,16.95c6.1,7.06,10.56,14.96,13.38,23.69,2.82,8.73,4.24,17.52,4.24,26.38,0,10.53-1.9,20-5.68,28.4-3.79,8.41-8.95,15.6-15.5,21.57-6.55,5.97-14.12,10.53-22.72,13.67-8.6,3.15-17.72,4.72-27.35,4.72h-49.3Zm27.92-26.96h16.56c7.06,0,13.48-.93,19.26-2.79,5.78-1.86,10.75-4.59,14.92-8.18,4.17-3.59,7.38-8.12,9.63-13.58,2.24-5.46,3.37-11.71,3.37-18.78,0-9.24-1.51-16.78-4.53-22.63-3.02-5.84-6.74-10.37-11.17-13.58-4.43-3.21-8.95-5.42-13.58-6.64-4.62-1.22-8.54-1.83-11.75-1.83h-22.72v88Z"/></g></svg>